# xmcd
#
# Track frame offsets:
#   150
#   16650
#   30749
#   47018
#   62453
#   75834
#   89973
#   104175
#   119210
#   132039
#   145180
#   161280
#   173096
#   186015
#
# Disc length: 2657 seconds
#
# Revision: 0
# Processed by: cddbd v1.5.2PL0 Copyright (c) Steve Scherf et al.
# Submitted via: uFREEDB ActiveX Control 1.5
#
DISCID=b50a5f0e
DTITLE=JOAO MINEIRO E MARCIANO - AS ROMANTICAS
DYEAR=2008
DGENRE=Alternative
TTITLE0=SEU AMOR AINDA E TUDO
TTITLE1=AINDA ONTE CHOREI DE SAUDADES
TTITLE2=SE EU NAO PUDER TE ESQUECER
TTITLE3=AS PAREDES SAO AZUIS
TTITLE4=CRIZES DE AMOR
TTITLE5=BENZADEUS
TTITLE6=A BALAIRINA
TTITLE7=VICIADO EM VOCE
TTITLE8=NAO TELEFONE MAIS
TTITLE9=ESTA NOITE COMO LEMBRANCAS
TTITLE10=NAO SE BATE EM QUEM SE AMA
TTITLE11=A MULHER QUE EU AMO
TTITLE12=PARE COM ISSO
TTITLE13=MINHA SERENATA
EXTD=
EXTT0=
EXTT1=
EXTT2=
EXTT3=
EXTT4=
EXTT5=
EXTT6=
EXTT7=
EXTT8=
EXTT9=
EXTT10=
EXTT11=
EXTT12=
EXTT13=
PLAYORDER=
